<?xml version="1.0" standalone="no"?>
<!DOCTYPE svg PUBLIC "-//W3C//DTD SVG 20010904//EN"
 "http://www.w3.org/TR/2001/REC-SVG-20010904/DTD/svg10.dtd">
<svg version="1.0" xmlns="http://www.w3.org/2000/svg"
 width="206.000000pt" height="245.000000pt" viewBox="0 0 206.000000 245.000000"
 preserveAspectRatio="xMidYMid meet">

<g transform="translate(0.000000,245.000000) scale(0.100000,-0.100000)"
fill="#000000" stroke="none">
<path d="M1052 2298 c3 -154 -256 -435 -439 -476 -21 -5 -49 -5 -61 -1 -20 8
-22 5 -22 -24 0 -60 19 -106 46 -113 96 -24 314 111 461 286 80 95 143 214
150 283 7 65 -4 76 -80 84 l-55 6 0 -45z"/>
<path d="M799 2288 c-85 -42 -176 -134 -218 -219 -44 -90 -29 -120 49 -99 124
34 306 251 272 325 -15 32 -26 31 -103 -7z m-29 -69 c0 -29 -90 -119 -119
-119 -36 0 -25 37 29 90 53 54 90 65 90 29z"/>
<path d="M1320 2222 c0 -44 -33 -140 -70 -203 -17 -28 -29 -54 -26 -56 3 -3
25 -8 51 -10 l45 -6 0 -46 c1 -44 1 -45 16 -26 33 41 85 163 91 213 l6 51 -56
58 -57 58 0 -33z"/>
<path d="M1497 1956 c-29 -179 -337 -502 -547 -573 -68 -23 -69 -21 14 -38 34
-7 120 27 197 77 82 52 235 205 287 287 64 98 84 160 72 223 -13 64 -16 68
-23 24z"/>
<path d="M1055 1870 c25 -26 35 -29 98 -32 l70 -3 -2 -70 c-2 -64 0 -73 23
-94 l26 -24 0 120 0 121 -31 6 c-17 3 -72 6 -122 6 l-91 0 29 -30z"/>
<path d="M963 1762 l37 -38 -62 -46 c-112 -82 -238 -136 -294 -125 -13 2 -24
1 -24 -3 0 -4 25 -31 56 -60 55 -52 56 -53 106 -47 78 10 170 57 314 162 10 7
21 1 43 -25 l30 -35 1 121 0 121 -77 7 c-42 3 -97 6 -122 6 l-45 0 37 -38z"/>
<path d="M1475 1648 c-28 -48 -162 -185 -229 -235 -70 -51 -65 -54 17 -10 79
41 163 125 205 205 35 66 40 96 7 40z"/>
<path d="M283 1313 l-43 -4 0 -290 0 -290 33 3 32 3 3 264 2 264 46 -6 c54 -6
81 -28 94 -78 20 -75 -23 -169 -77 -169 -18 0 -24 -5 -21 -17 3 -14 14 -18 51
-17 79 1 131 66 130 166 -2 131 -83 187 -250 171z"/>
<path d="M1348 1239 c-13 -7 -18 -23 -18 -55 0 -41 -3 -46 -31 -56 -35 -12
-36 -41 -1 -46 22 -3 22 -6 22 -143 0 -148 9 -187 49 -209 49 -26 131 0 131
41 0 10 -1 19 -3 19 -1 0 -16 -4 -34 -9 -23 -7 -37 -5 -50 4 -16 12 -18 32
-21 154 l-4 141 40 0 c56 0 72 8 72 36 0 22 -4 24 -55 24 l-55 0 0 55 c0 57
-7 65 -42 44z"/>
<path d="M685 1136 c-73 -32 -114 -133 -101 -246 14 -117 61 -165 161 -165 76
0 109 20 143 85 31 62 32 194 1 258 -35 70 -128 101 -204 68z m118 -63 c40
-45 47 -206 11 -260 -39 -60 -111 -51 -138 18 -29 71 -18 199 20 240 22 25 85
25 107 2z"/>
<path d="M1041 1134 c-45 -19 -60 -41 -61 -87 0 -53 9 -66 90 -131 56 -46 70
-62 70 -84 0 -16 -5 -33 -12 -40 -15 -15 -87 -16 -123 -2 -21 8 -27 7 -32 -6
-10 -27 11 -48 59 -58 124 -24 217 57 179 157 -5 14 -38 46 -73 72 -93 71
-104 88 -71 121 14 13 28 15 75 10 32 -3 58 -4 58 -2 0 3 3 12 6 20 4 12 -4
20 -30 31 -44 19 -91 19 -135 -1z"/>
<path d="M1625 1133 c-49 -18 -63 -36 -46 -61 7 -11 18 -10 64 3 69 20 93 10
103 -40 9 -52 1 -65 -46 -65 -79 0 -135 -39 -150 -105 -23 -103 71 -178 163
-130 25 13 31 13 53 -2 20 -13 30 -14 49 -5 29 13 31 27 10 48 -12 12 -15 46
-15 169 0 133 -2 156 -18 175 -25 31 -100 36 -167 13z m120 -267 c-1 -66 -17
-86 -70 -86 -41 0 -55 16 -55 60 0 53 46 91 105 87 18 -2 20 -9 20 -61z"/>
<path d="M1350 624 c0 -37 -3 -45 -15 -40 -65 25 -124 -110 -74 -170 16 -20
133 -18 125 3 -3 8 -6 68 -6 134 0 99 -3 119 -15 119 -11 0 -15 -12 -15 -46z
m-2 -131 c-3 -65 -4 -68 -28 -68 -31 0 -52 39 -44 80 8 40 22 55 51 55 23 0
24 -2 21 -67z"/>
<path d="M539 656 c-2 -2 -2 -54 1 -115 6 -132 15 -147 87 -145 67 1 73 15 73
151 0 67 -4 113 -10 113 -14 0 -20 -34 -23 -140 l-2 -95 -31 -3 c-51 -5 -63
19 -66 133 -3 87 -11 118 -29 101z"/>
<path d="M780 577 c-19 -9 -26 -22 -28 -51 -2 -21 1 -43 7 -49 8 -8 6 -16 -4
-27 -21 -23 -3 -38 56 -48 29 -5 45 -13 47 -24 5 -23 -33 -58 -63 -58 -27 0
-32 9 -13 28 6 6 8 15 4 19 -10 10 -58 -45 -51 -58 9 -14 72 -11 103 5 15 8
34 26 42 41 20 37 4 58 -54 69 -53 11 -56 27 -6 37 40 9 52 24 47 67 -2 21 1
32 10 32 7 0 13 5 13 10 0 6 -13 10 -29 10 -16 0 -35 2 -43 5 -7 3 -24 -1 -38
-8z m49 -21 c7 -8 11 -27 9 -43 -2 -22 -8 -28 -28 -28 -21 0 -26 5 -28 34 -5
45 23 66 47 37z"/>
<path d="M951 581 c-41 -11 -37 -31 6 -28 32 2 38 -1 41 -20 3 -18 -3 -23 -32
-28 -45 -9 -58 -25 -54 -67 3 -33 3 -33 58 -35 l56 -1 -2 81 c-2 64 -6 84 -20
94 -19 14 -18 14 -53 4z m44 -102 c4 -5 4 -21 1 -35 -9 -34 -56 -35 -56 -1 0
37 39 63 55 36z"/>
<path d="M1461 581 c-41 -11 -37 -31 6 -28 32 2 38 -1 41 -19 2 -16 -5 -23
-37 -32 -43 -13 -57 -37 -47 -77 6 -23 11 -24 67 -24 49 1 59 4 55 16 -3 8 -6
42 -6 76 0 34 -4 67 -8 73 -10 16 -43 23 -71 15z m47 -123 c-2 -28 -7 -33 -28
-33 -31 0 -40 33 -14 52 31 23 46 16 42 -19z"/>
<path d="M1075 571 c-3 -2 -5 -42 -5 -88 0 -66 3 -83 15 -83 11 0 15 17 17 71
3 75 17 99 52 86 13 -5 16 -21 16 -82 0 -65 2 -75 18 -75 15 0 16 9 12 87 l-5
88 -58 1 c-32 0 -60 -2 -62 -5z"/>
<path d="M830 201 c0 -12 -9 -21 -26 -25 -22 -6 -25 -11 -22 -44 3 -33 6 -37
31 -38 27 -1 27 0 27 62 0 35 -2 64 -5 64 -3 0 -5 -9 -5 -19z m-2 -63 c-3 -36
-30 -46 -36 -15 -5 26 5 47 23 47 12 0 15 -8 13 -32z"/>
<path d="M943 155 c0 -38 2 -53 4 -32 2 20 2 52 0 70 -2 17 -4 1 -4 -38z"/>
<path d="M970 210 c0 -5 5 -10 10 -10 6 0 10 5 10 10 0 6 -4 10 -10 10 -5 0
-10 -4 -10 -10z"/>
<path d="M526 176 c3 -21 10 -50 16 -65 l11 -26 11 37 c16 53 23 55 31 9 4
-23 10 -41 15 -41 4 0 14 27 23 60 8 33 11 60 7 60 -4 0 -11 -20 -15 -45 -8
-54 -21 -51 -30 6 -8 47 -16 44 -31 -14 l-11 -42 -16 50 c-15 46 -16 47 -11
11z"/>
<path d="M1262 149 c2 -32 8 -53 16 -55 7 -1 8 0 2 3 -12 6 -13 70 -1 75 5 2
2 9 -6 16 -12 12 -14 7 -11 -39z"/>
<path d="M1522 149 c2 -45 6 -54 23 -57 18 -2 18 -2 3 8 -19 12 -24 50 -9 66
6 5 4 14 -5 22 -13 12 -15 7 -12 -39z"/>
<path d="M672 168 c-25 -25 -10 -78 22 -77 21 0 21 0 -1 9 -31 13 -29 30 3 30
21 0 25 4 22 22 -3 26 -28 34 -46 16z m36 -16 c2 -7 -5 -12 -17 -12 -14 0 -19
5 -14 15 6 17 25 15 31 -3z"/>
<path d="M871 166 c-7 -8 -11 -27 -9 -43 2 -22 9 -29 28 -30 25 -3 25 -3 3 7
-28 12 -30 30 -4 30 24 0 33 13 25 34 -8 20 -28 21 -43 2z m37 -14 c2 -7 -6
-12 -17 -12 -21 0 -27 11 -14 24 9 9 26 2 31 -12z"/>
<path d="M977 173 c-11 -10 -8 -83 3 -83 6 0 10 20 10 45 0 46 -2 50 -13 38z"/>
<path d="M1011 169 c-1 -26 20 -79 30 -73 5 3 9 12 9 21 0 9 -3 13 -7 9 -4 -4
-13 8 -19 26 -7 18 -13 26 -13 17z"/>
<path d="M1091 166 c-7 -8 -11 -27 -9 -43 2 -22 9 -29 28 -30 25 -3 25 -3 3 7
-28 12 -30 30 -4 30 24 0 33 13 25 34 -8 20 -28 21 -43 2z m37 -14 c2 -7 -6
-12 -17 -12 -21 0 -27 11 -14 24 9 9 26 2 31 -12z"/>
<path d="M1173 173 c-8 -3 -12 -21 -11 -46 1 -41 1 -41 5 -7 2 19 11 41 20 48
17 12 9 15 -14 5z"/>
<path d="M1371 143 c-1 -46 9 -58 39 -48 16 5 20 14 19 48 l-2 42 -6 -40 c-4
-26 -11 -40 -21 -40 -10 0 -17 14 -21 40 l-6 40 -2 -42z"/>
<path d="M1453 164 c-4 -10 1 -22 10 -29 22 -16 22 -32 0 -39 -11 -3 -8 -4 6
-3 33 3 37 21 11 45 -21 19 -21 21 -3 31 17 10 17 10 0 11 -10 0 -20 -7 -24
-16z"/>
<path d="M1051 154 c0 -11 3 -14 6 -6 3 7 2 16 -1 19 -3 4 -6 -2 -5 -13z"/>
<path d="M1310 129 c0 -24 4 -38 10 -34 6 3 10 22 10 41 0 19 -4 34 -10 34 -5
0 -10 -18 -10 -41z"/>
</g>
</svg>
